name analog
datacolumns 19
datarows 23
range 0.0 0.011
endheader
time	ground_force_vx	ground_force_vy	ground_force_vz	ground_force_px	ground_force_py	ground_force_pz	l_ground_force_vx	l_ground_force_vy	l_ground_force_vz	l_ground_force_px	l_ground_force_py	l_ground_force_pz	ground_torque_x	ground_torque_y	ground_torque_z	l_ground_torque_x	l_ground_torque_y	l_ground_torque_z
0.0	-0.0	-0.0	-0.0	-3.4591994285583496	21.377967834472656	-216.93170166015625	0.0887107849121093	-20.29421043395996	-283.458984375	-0.0	-0.0	-0.0	-0.0	-0.0	-0.0	84764.53125	15393.56640625	-2214.396240234375
0.0005	-0.0	-0.0	-0.0	-3.5750303268432617	21.39129638671875	-217.88584899902344	-0.3220362067222595	-19.545223236083984	-282.5669860839844	-0.0	-0.0	-0.0	-0.0	-0.0	-0.0	84250.6484375	15540.6845703125	-2120.116455078125
0.001	-0.0	-0.0	-0.0	-3.542290449142456	21.33479881286621	-218.48907470703125	-0.3418745100498199	-19.55782699584961	-282.1655578613281	-0.0	-0.0	-0.0	-0.0	-0.0	-0.0	84397.7421875	15522.3251953125	-2242.33154296875
0.0015	-0.0	-0.0	-0.0	-3.561958074569702	21.39775276184082	-218.59278869628903	-0.3420141935348511	-19.70212173461914	-283.3848876953125	-0.0	-0.0	-0.0	-0.0	-0.0	-0.0	84311.921875	15535.29296875	-2102.814697265625
0.002	-0.0	-0.0	-0.0	-3.848436117172241	21.913286209106445	-218.6944122314453	-0.8616888523101807	-19.891359329223636	-281.86541748046875	-0.0	-0.0	-0.0	-0.0	-0.0	-0.0	84081.1484375	15393.9150390625	-2058.85888671875
0.0025	-0.0	-0.0	-0.0	-3.77912974357605	22.129615783691406	-218.9715576171875	-0.5385423898696899	-19.254127502441406	-281.4656066894531	-0.0	-0.0	-0.0	-0.0	-0.0	-0.0	83923.0	15573.697265625	-2215.382080078125
0.003	-0.0	-0.0	-0.0	-3.74057674407959	22.35921287536621	-219.603515625	-0.2661323547363281	-19.85380744934082	-281.1405029296875	-0.0	-0.0	-0.0	-0.0	-0.0	-0.0	84026.53125	15422.31640625	-2143.122314453125
0.0035	-0.0	-0.0	-0.0	-3.657630920410156	22.18728828430176	-219.42271423339844	-0.8564032912254333	-20.042909622192383	-279.442138671875	-0.0	-0.0	-0.0	-0.0	-0.0	-0.0	83771.6015625	15280.8544921875	-2031.068603515625
0.004	-0.0	-0.0	-0.0	-3.651513576507568	22.473085403442383	-220.68902587890625	0.0583536773920059	-19.537227630615234	-281.368408203125	-0.0	-0.0	-0.0	-0.0	-0.0	-0.0	83977.34375	15606.6787109375	-2067.192138671875
0.0045000000000000005	-0.0	-0.0	-0.0	-3.8299949169158936	22.460861206054688	-221.09063720703125	-0.2601208388805389	-19.942745208740234	-282.04351806640625	-0.0	-0.0	-0.0	-0.0	-0.0	-0.0	83626.734375	15123.8623046875	-2018.3846435546875
0.005	-0.0	-0.0	-0.0	-3.7229232788085938	22.555965423583984	-219.2773895263672	-0.3311053514480591	-19.866470336914062	-282.4169616699219	-0.0	-0.0	-0.0	-0.0	-0.0	-0.0	83895.6796875	14972.755859375	-1982.85009765625
0.0055	-0.0	-0.0	-0.0	-4.157435894012451	22.4549560546875	-220.3140869140625	0.3607081472873688	-19.58989715576172	-281.43927001953125	-0.0	-0.0	-0.0	-0.0	-0.0	-0.0	83553.8671875	15220.0556640625	-1911.062744140625
0.006	-0.0	-0.0	-0.0	-3.5742695331573486	22.639122009277344	-220.29165649414065	0.6267803311347961	-19.695735931396484	-281.2269897460937	-0.0	-0.0	-0.0	-0.0	-0.0	-0.0	83832.140625	15234.67578125	-1879.214599609375
0.006500000000000001	-0.0	-0.0	-0.0	-3.479209899902344	22.07863998413086	-220.36143493652344	0.2775878608226776	-19.60171127319336	-282.88043212890625	-0.0	-0.0	-0.0	-0.0	-0.0	-0.0	83955.6015625	15208.224609375	-1810.457275390625
0.007	-0.0	-0.0	-0.0	-3.228712558746338	22.472272872924805	-222.34507751464844	0.7040184140205383	-19.77277183532715	-282.2260437011719	-0.0	-0.0	-0.0	-0.0	-0.0	-0.0	84277.640625	15006.4208984375	-1639.834228515625
0.0075	-0.0	-0.0	-0.0	-3.718672037124634	22.460861206054688	-220.759765625	0.7152770757675171	-19.36471366882324	-282.7908020019531	-0.0	-0.0	-0.0	-0.0	-0.0	-0.0	84197.765625	14850.951171875	-1676.813232421875
0.008	-0.0	-0.0	-0.0	-3.5795483589172363	22.711576461791992	-218.33128356933597	0.720728874206543	-19.94970703125	-283.1402587890625	-0.0	-0.0	-0.0	-0.0	-0.0	-0.0	84296.2890625	15123.826171875	-1684.3272705078125
0.0085	-0.0	-0.0	-0.0	-3.4010071754455566	23.051780700683597	-218.927978515625	0.8871078491210938	-19.82344055175781	-283.4896240234375	-0.0	-0.0	-0.0	-0.0	-0.0	-0.0	84339.21875	14900.38671875	-1776.94140625
0.009000000000000001	-0.0	-0.0	-0.0	-3.36286735534668	22.577098846435547	-218.66134643554688	0.8763388395309448	-19.60741424560547	-283.48992919921875	-0.0	-0.0	-0.0	-0.0	-0.0	-0.0	84305.4609375	14749.939453125	-1676.346435546875
0.0095	-0.0	-0.0	-0.0	-2.9761431217193604	22.65520477294922	-217.2481384277344	1.0592049360275269	-19.44137382507324	-283.05718994140625	-0.0	-0.0	-0.0	-0.0	-0.0	-0.0	84205.765625	14745.6611328125	-1829.1114501953125
0.01	-0.0	-0.0	-0.0	-2.6029927730560303	22.497900009155277	-218.32809448242188	0.1984410583972931	-19.540019989013672	-282.8748474121094	-0.0	-0.0	-0.0	-0.0	-0.0	-0.0	84517.5625	14913.294921875	-1718.3076171875
0.0105	-0.0	-0.0	-0.0	-2.5818862915039062	22.460861206054688	-218.26519775390625	1.1377067565917969	-19.534557342529297	-283.7583923339844	-0.0	-0.0	-0.0	-0.0	-0.0	-0.0	84646.2421875	15129.837890625	-1667.0703125
0.011	-0.0	-0.0	-0.0	-3.0965750217437744	22.45055389404297	-218.24478149414065	0.719922661781311	-19.83670997619629	-284.5787353515625	-0.0	-0.0	-0.0	-0.0	-0.0	-0.0	84430.1171875	14720.0322265625	-1637.7601318359375
